<svg width="162" height="162" viewBox="0 0 162 162" fill="none" xmlns="http://www.w3.org/2000/svg">
<circle cx="81" cy="81" r="74" fill="white"/>
<path d="M81 0.5C125.459 0.5 161.5 36.5411 161.5 81C161.5 125.459 125.459 161.5 81 161.5C80.6797 161.5 80.4199 161.24 80.4199 160.92C80.42 160.6 80.6797 160.34 81 160.34C124.818 160.34 160.34 124.818 160.34 81C160.34 37.1817 124.818 1.66016 81 1.66016C37.1817 1.66016 1.66016 37.1817 1.66016 81C1.66016 81.3203 1.40037 81.58 1.08008 81.5801C0.759752 81.5801 0.5 81.3203 0.5 81C0.5 36.5411 36.5411 0.5 81 0.5Z" stroke="white"/>
<path d="M34.8635 88.198C31.6775 88.198 28.9235 85.408 28.9235 81.7C28.9235 77.992 31.6775 75.202 34.8635 75.202C37.6175 75.202 39.6695 77.254 40.2455 79.702H38.5535C38.0675 78.136 36.8075 76.768 34.8635 76.768C32.5955 76.768 30.5795 78.784 30.5795 81.7C30.5795 84.616 32.5955 86.632 34.8635 86.632C36.8615 86.632 38.1395 85.264 38.6435 83.716H40.3355C39.7415 86.128 37.6895 88.198 34.8635 88.198ZM47.6604 88.198C44.4744 88.198 41.7204 85.408 41.7204 81.7C41.7204 77.992 44.4744 75.202 47.6604 75.202C50.8464 75.202 53.6004 77.992 53.6004 81.7C53.6004 85.408 50.8464 88.198 47.6604 88.198ZM47.6604 86.632C49.9464 86.632 51.9444 84.616 51.9444 81.7C51.9444 78.784 49.9464 76.768 47.6604 76.768C45.3924 76.768 43.3764 78.784 43.3764 81.7C43.3764 84.616 45.3924 86.632 47.6604 86.632ZM63.7918 85.066V75.4H65.4298V88H63.8818L57.4738 78.334V88H55.8358V75.4H57.3838L63.7918 85.066ZM72.6877 88H71.0317V76.966H67.2157V75.4H76.5037V76.966H72.6877V88ZM86.8408 88H85.0768L83.9788 84.976H78.5428L77.4448 88H75.7528L80.5048 75.4H82.0888L86.8408 88ZM83.4028 83.446L81.2608 77.632L79.1188 83.446H83.4028ZM93.2053 88.198C90.0193 88.198 87.2653 85.408 87.2653 81.7C87.2653 77.992 90.0193 75.202 93.2053 75.202C95.9593 75.202 98.0113 77.254 98.5873 79.702H96.8953C96.4093 78.136 95.1493 76.768 93.2053 76.768C90.9373 76.768 88.9213 78.784 88.9213 81.7C88.9213 84.616 90.9373 86.632 93.2053 86.632C95.2033 86.632 96.4813 85.264 96.9853 83.716H98.6773C98.0833 86.128 96.0313 88.198 93.2053 88.198ZM104.733 88H103.077V76.966H99.2607V75.4H108.549V76.966H104.733V88ZM118.574 88.198C115.748 88.198 113.894 86.164 113.894 83.392V75.4H115.55V83.392C115.55 85.354 116.738 86.632 118.574 86.632C120.392 86.632 121.598 85.354 121.598 83.392V75.4H123.254V83.392C123.254 86.164 121.382 88.198 118.574 88.198ZM129.784 88.198C127.12 88.198 125.5 86.542 125.374 84.238H127.03C127.156 85.732 128.128 86.686 129.802 86.686C131.494 86.686 132.34 85.84 132.34 84.724C132.34 81.574 125.68 83.05 125.68 78.64C125.68 76.678 127.156 75.202 129.658 75.202C132.16 75.202 133.69 76.894 133.798 79.072H132.142C132.07 77.668 131.116 76.714 129.658 76.714C128.164 76.714 127.336 77.542 127.336 78.64C127.336 81.7 133.996 80.116 133.996 84.688C133.996 86.722 132.52 88.198 129.784 88.198Z" fill="#8E8989"/>
</svg>
