<svg width="162" height="162" viewBox="0 0 162 162" fill="none" xmlns="http://www.w3.org/2000/svg">
<circle cx="81" cy="81" r="74" fill="white"/>
<path d="M81 0.5C125.459 0.5 161.5 36.5411 161.5 81C161.5 125.459 125.459 161.5 81 161.5C80.6797 161.5 80.4199 161.24 80.4199 160.92C80.42 160.6 80.6797 160.34 81 160.34C124.818 160.34 160.34 124.818 160.34 81C160.34 37.1817 124.818 1.66016 81 1.66016C37.1817 1.66016 1.66016 37.1817 1.66016 81C1.66016 81.3203 1.40037 81.58 1.08008 81.5801C0.759752 81.5801 0.5 81.3203 0.5 81C0.5 36.5411 36.5411 0.5 81 0.5Z" stroke="white"/>
<path d="M43.9251 88.198C40.7391 88.198 37.9851 85.408 37.9851 81.7C37.9851 77.992 40.7391 75.202 43.9251 75.202C46.6791 75.202 48.7311 77.254 49.3071 79.702H47.6151C47.1291 78.136 45.8691 76.768 43.9251 76.768C41.6571 76.768 39.6411 78.784 39.6411 81.7C39.6411 84.616 41.6571 86.632 43.9251 86.632C45.9231 86.632 47.2011 85.264 47.7051 83.716H49.3971C48.8031 86.128 46.7511 88.198 43.9251 88.198ZM56.7219 88.198C53.5359 88.198 50.7819 85.408 50.7819 81.7C50.7819 77.992 53.5359 75.202 56.7219 75.202C59.9079 75.202 62.6619 77.992 62.6619 81.7C62.6619 85.408 59.9079 88.198 56.7219 88.198ZM56.7219 86.632C59.0079 86.632 61.0059 84.616 61.0059 81.7C61.0059 78.784 59.0079 76.768 56.7219 76.768C54.4539 76.768 52.4379 78.784 52.4379 81.7C52.4379 84.616 54.4539 86.632 56.7219 86.632ZM72.8533 85.066V75.4H74.4913V88H72.9433L66.5353 78.334V88H64.8973V75.4H66.4453L72.8533 85.066ZM81.7493 88H80.0933V76.966H76.2773V75.4H85.5653V76.966H81.7493V88ZM89.0006 88H87.3446V75.4H89.0006V88ZM99.9588 85.066V75.4H101.597V88H100.049L93.6408 78.334V88H92.0028V75.4H93.5508L99.9588 85.066ZM109.179 88.198C106.353 88.198 104.499 86.164 104.499 83.392V75.4H106.155V83.392C106.155 85.354 107.343 86.632 109.179 86.632C110.997 86.632 112.203 85.354 112.203 83.392V75.4H113.859V83.392C113.859 86.164 111.987 88.198 109.179 88.198ZM118.409 82.294V86.452H124.979V88H116.753V75.4H124.799V76.948H118.409V80.764H124.115V82.294H118.409Z" fill="#8E8989"/>
</svg>
