<svg width="162" height="162" viewBox="0 0 162 162" fill="none" xmlns="http://www.w3.org/2000/svg">
<circle cx="81" cy="81" r="74" fill="white"/>
<path d="M81 0.5C125.459 0.5 161.5 36.5411 161.5 81C161.5 125.459 125.459 161.5 81 161.5C80.6797 161.5 80.4199 161.24 80.4199 160.92C80.42 160.6 80.6797 160.34 81 160.34C124.818 160.34 160.34 124.818 160.34 81C160.34 37.1817 124.818 1.66016 81 1.66016C37.1817 1.66016 1.66016 37.1817 1.66016 81C1.66016 81.3203 1.40037 81.58 1.08008 81.5801C0.759752 81.5801 0.5 81.3203 0.5 81C0.5 36.5411 36.5411 0.5 81 0.5Z" stroke="white"/>
<path d="M61.3614 88.198C58.6974 88.198 57.0774 86.542 56.9514 84.238H58.6074C58.7334 85.732 59.7054 86.686 61.3794 86.686C63.0714 86.686 63.9174 85.84 63.9174 84.724C63.9174 81.574 57.2574 83.05 57.2574 78.64C57.2574 76.678 58.7334 75.202 61.2354 75.202C63.7374 75.202 65.2674 76.894 65.3754 79.072H63.7194C63.6474 77.668 62.6934 76.714 61.2354 76.714C59.7414 76.714 58.9134 77.542 58.9134 78.64C58.9134 81.7 65.5734 80.116 65.5734 84.688C65.5734 86.722 64.0974 88.198 61.3614 88.198ZM71.8 88H70.144V76.966H66.328V75.4H75.616V76.966H71.8V88ZM85.9531 88H84.1891L83.0911 84.976H77.6551L76.5571 88H74.8651L79.6171 75.4H81.2011L85.9531 88ZM82.5151 83.446L80.3731 77.632L78.2311 83.446H82.5151ZM96.3772 88H94.4512L91.6072 82.924H89.1412V88H87.4852V75.4H92.0932C94.4152 75.4 96.1252 77.056 96.1252 79.198C96.1252 80.89 94.9912 82.24 93.2992 82.726L96.3772 88ZM92.0752 76.948H89.1412V81.394H92.0752C93.4792 81.394 94.4692 80.458 94.4692 79.216C94.4692 77.902 93.4792 76.948 92.0752 76.948ZM102.667 88H101.011V76.966H97.1952V75.4H106.483V76.966H102.667V88Z" fill="#8E8989"/>
</svg>
